<mxfile host="app.diagrams.net" agent="Mozilla/5.0 (Windows NT 10.0; Win64; x64) AppleWebKit/537.36 (KHTML, like Gecko) Chrome/139.0.0.0 Safari/537.36" version="28.2.5">
  <diagram name="第 1 页" id="6sJxwS92cMLdUuXCLAzA">
    <mxGraphModel dx="2610" dy="939" grid="1" gridSize="10" guides="1" tooltips="1" connect="1" arrows="1" fold="1" page="1" pageScale="1" pageWidth="827" pageHeight="1169" math="0" shadow="0">
      <root>
        <mxCell id="0" />
        <mxCell id="1" parent="0" />
        <mxCell id="3KPFgr4m8nUXZytFdCF3-1" value="GrSurface" style="shape=cube;whiteSpace=wrap;html=1;boundedLbl=1;backgroundOutline=1;darkOpacity=0.05;darkOpacity2=0.1;" parent="1" vertex="1">
          <mxGeometry x="320" y="160" width="120" height="80" as="geometry" />
        </mxCell>
        <mxCell id="3KPFgr4m8nUXZytFdCF3-2" value="GrGpuResource" style="shape=cube;whiteSpace=wrap;html=1;boundedLbl=1;backgroundOutline=1;darkOpacity=0.05;darkOpacity2=0.1;" parent="1" vertex="1">
          <mxGeometry x="320" y="20" width="120" height="80" as="geometry" />
        </mxCell>
        <mxCell id="3KPFgr4m8nUXZytFdCF3-3" value="GrTexture" style="shape=cube;whiteSpace=wrap;html=1;boundedLbl=1;backgroundOutline=1;darkOpacity=0.05;darkOpacity2=0.1;" parent="1" vertex="1">
          <mxGeometry x="-60" y="270" width="120" height="80" as="geometry" />
        </mxCell>
        <mxCell id="3KPFgr4m8nUXZytFdCF3-4" value="GrRenderTarget" style="shape=cube;whiteSpace=wrap;html=1;boundedLbl=1;backgroundOutline=1;darkOpacity=0.05;darkOpacity2=0.1;" parent="1" vertex="1">
          <mxGeometry x="640" y="280" width="120" height="80" as="geometry" />
        </mxCell>
        <mxCell id="3KPFgr4m8nUXZytFdCF3-5" value="GrGLRenderTarget" style="shape=cube;whiteSpace=wrap;html=1;boundedLbl=1;backgroundOutline=1;darkOpacity=0.05;darkOpacity2=0.1;" parent="1" vertex="1">
          <mxGeometry x="410" y="400" width="130" height="80" as="geometry" />
        </mxCell>
        <mxCell id="3KPFgr4m8nUXZytFdCF3-6" value="GrMockRenderTarget" style="shape=cube;whiteSpace=wrap;html=1;boundedLbl=1;backgroundOutline=1;darkOpacity=0.05;darkOpacity2=0.1;" parent="1" vertex="1">
          <mxGeometry x="560" y="400" width="140" height="80" as="geometry" />
        </mxCell>
        <mxCell id="3KPFgr4m8nUXZytFdCF3-7" value="GrMtlRenderTarget" style="shape=cube;whiteSpace=wrap;html=1;boundedLbl=1;backgroundOutline=1;darkOpacity=0.05;darkOpacity2=0.1;" parent="1" vertex="1">
          <mxGeometry x="720" y="400" width="140" height="80" as="geometry" />
        </mxCell>
        <mxCell id="3KPFgr4m8nUXZytFdCF3-8" value="GrVkRenderTarget" style="shape=cube;whiteSpace=wrap;html=1;boundedLbl=1;backgroundOutline=1;darkOpacity=0.05;darkOpacity2=0.1;" parent="1" vertex="1">
          <mxGeometry x="890" y="400" width="140" height="80" as="geometry" />
        </mxCell>
        <mxCell id="3KPFgr4m8nUXZytFdCF3-9" value="GrGLTexture" style="shape=cube;whiteSpace=wrap;html=1;boundedLbl=1;backgroundOutline=1;darkOpacity=0.05;darkOpacity2=0.1;" parent="1" vertex="1">
          <mxGeometry x="-290" y="400" width="120" height="80" as="geometry" />
        </mxCell>
        <mxCell id="3KPFgr4m8nUXZytFdCF3-10" value="GrMockTexture" style="shape=cube;whiteSpace=wrap;html=1;boundedLbl=1;backgroundOutline=1;darkOpacity=0.05;darkOpacity2=0.1;" parent="1" vertex="1">
          <mxGeometry x="-120" y="400" width="120" height="80" as="geometry" />
        </mxCell>
        <mxCell id="3KPFgr4m8nUXZytFdCF3-11" value="GrMtlTexture" style="shape=cube;whiteSpace=wrap;html=1;boundedLbl=1;backgroundOutline=1;darkOpacity=0.05;darkOpacity2=0.1;" parent="1" vertex="1">
          <mxGeometry x="30" y="400" width="120" height="80" as="geometry" />
        </mxCell>
        <mxCell id="3KPFgr4m8nUXZytFdCF3-12" value="GrVkTexture" style="shape=cube;whiteSpace=wrap;html=1;boundedLbl=1;backgroundOutline=1;darkOpacity=0.05;darkOpacity2=0.1;" parent="1" vertex="1">
          <mxGeometry x="170" y="400" width="120" height="80" as="geometry" />
        </mxCell>
        <mxCell id="3KPFgr4m8nUXZytFdCF3-13" value="GrContext_Base" style="shape=cube;whiteSpace=wrap;html=1;boundedLbl=1;backgroundOutline=1;darkOpacity=0.05;darkOpacity2=0.1;" parent="1" vertex="1">
          <mxGeometry x="-60" y="750" width="120" height="80" as="geometry" />
        </mxCell>
        <mxCell id="3KPFgr4m8nUXZytFdCF3-14" value="GrImageContext" style="shape=cube;whiteSpace=wrap;html=1;boundedLbl=1;backgroundOutline=1;darkOpacity=0.05;darkOpacity2=0.1;" parent="1" vertex="1">
          <mxGeometry x="-60" y="860" width="120" height="80" as="geometry" />
        </mxCell>
        <mxCell id="3KPFgr4m8nUXZytFdCF3-15" value="GrRecordingContext" style="shape=cube;whiteSpace=wrap;html=1;boundedLbl=1;backgroundOutline=1;darkOpacity=0.05;darkOpacity2=0.1;" parent="1" vertex="1">
          <mxGeometry x="-90" y="980" width="170" height="90" as="geometry" />
        </mxCell>
        <mxCell id="3KPFgr4m8nUXZytFdCF3-16" value="GrContext" style="shape=cube;whiteSpace=wrap;html=1;boundedLbl=1;backgroundOutline=1;darkOpacity=0.05;darkOpacity2=0.1;" parent="1" vertex="1">
          <mxGeometry x="-85" y="1120" width="170" height="90" as="geometry" />
        </mxCell>
      </root>
    </mxGraphModel>
  </diagram>
</mxfile>
